<svg xmlns="http://www.w3.org/2000/svg" viewBox="0 0 600 400" role="img" aria-label="Hotel Cancellations">
<defs><linearGradient id="g" x1="0" y1="0" x2="1" y2="1"><stop offset="0" stop-color="#1e3a8a"/><stop offset="1" stop-color="#6d5dfc"/></linearGradient>
<pattern id="grid" width="30" height="30" patternUnits="userSpaceOnUse"><path d="M30 0H0V30" fill="none" stroke="#fff" stroke-opacity=".08"/></pattern></defs>
<rect width="600" height="400" fill="url(#g)"/><rect width="600" height="400" fill="url(#grid)"/>
<circle cx="520" cy="80" r="140" fill="#fff" fill-opacity=".06"/><circle cx="560" cy="330" r="90" fill="#fff" fill-opacity=".05"/>
<g transform="translate(400 60)"><g stroke="#fff" stroke-width="4" fill="none" stroke-linecap="round" stroke-linejoin="round" stroke-opacity=".85"><rect x="30" y="30" width="100" height="110" rx="6"/><path d="M50 55h14M76 55h14M102 55h14M50 80h14M76 80h14M102 80h14M50 105h14M102 105h14"/><path d="M76 140 V110 h14 v30"/></g><path d="M118 20 l6 12 13 2 -9 9 2 13 -12 -6 -12 6 2 -13 -9 -9 13 -2z" fill="#ffb020" stroke="#ffb020" stroke-width="3" stroke-linejoin="round"/></g>
<text x="40" y="70" font-size="14" font-weight="600" letter-spacing="3" fill="#fff" fill-opacity=".8" font-family="Poppins,Helvetica,Arial,sans-serif">MACHINE LEARNING · HOSPITALITY</text>
<text x="40" y="130" font-size="30" font-weight="700" fill="#fff" font-family="Poppins,Helvetica,Arial,sans-serif">Hotel Cancellations</text>
<text x="40" y="330" font-size="56" font-weight="700" fill="#fff" font-family="Poppins,Helvetica,Arial,sans-serif">Lead time</text>
<text x="40" y="360" font-size="15" fill="#fff" fill-opacity=".85" font-family="Poppins,Helvetica,Arial,sans-serif">is the strongest cancellation predictor</text>
</svg>